<?xml version="1.0" encoding="UTF-8"?>
<svg width="699px" height="1480px" viewBox="0 0 699 1480" version="1.1" xmlns="http://www.w3.org/2000/svg" xmlns:xlink="http://www.w3.org/1999/xlink">
    <!-- Generator: Sketch 42 (36781) - http://www.bohemiancoding.com/sketch -->
    <title>2015</title>
    <desc>Created with Sketch.</desc>
    <defs></defs>
    <g id="Page-1" stroke="none" stroke-width="1" fill="none" fill-rule="evenodd">
        <g id="Reservior" transform="translate(-7102.000000, -183.000000)">
            <g id="2015" transform="translate(7102.000000, 183.000000)">
                <g id="US-States/State-Shapes/California" opacity="0.3046875" transform="translate(60.000000, 194.000000)">
                    <path d="M298.714879,1003.02951 L296.562745,998.311319 L293.399866,994.51034 L292.127839,992.458278 L291.454008,989.496779 L291.117092,988.727256 L290.780177,987.670133 L290.51202,986.449778 L290.51202,985.462612 L290.312621,984.545402 L289.501274,984.094571 L288.490528,983.713696 L287.686056,983.029675 L287.149742,985.384882 L287.954213,988.198695 L288.964959,990.94255 L289.700673,995.038902 L291.921564,1000.06801 L292.732911,1003.94672 L294.142455,1005.83555 L295.827032,1007.43678 L297.167818,1008.35399 L297.910407,1008.58717 L298.446721,1008.43172 L298.983036,1008.2063 L299.526226,1008.12857 L301.609601,1008.58717 L302.551589,1008.58717 L303.493577,1008.2063 L300.468214,1004.47528 L298.714879,1003.02951 L298.714879,1003.02951 Z M225.528603,947.289594 L223.307712,945.766093 L223.039554,945.315262 L221.966926,944.164863 L221.155578,944.708971 L220.213591,944.934386 L219.278478,944.7867 L218.329615,944.094906 L218.735288,947.211864 L220.213591,949.722531 L222.434482,951.549177 L225.129805,952.6063 L227.749494,952.155468 L227.412579,949.95572 L225.528603,947.289594 L225.528603,947.289594 Z M310.218133,949.038511 L304.22929,945.012116 L303.019145,944.398052 L298.584238,939.983009 L296.700262,939.073573 L294.885044,938.995843 L294.073697,940.293928 L294.747528,941.739699 L296.294588,943.177697 L298.109806,944.242593 L299.526226,944.7867 L301.410202,945.696137 L301.877758,947.289594 L301.410202,951.549177 L301.47896,953.904385 L301.877758,955.808761 L302.750987,957.176802 L304.366806,957.860823 L305.109395,957.783093 L307.124012,957.176802 L307.935359,957.106845 L308.877347,957.557677 L311.160121,959.835155 L312.569665,960.363717 L313.848568,960.060571 L314.391758,958.700303 L311.098238,950.476509 L310.218133,949.038511 L310.218133,949.038511 Z M195.529381,865.005015 L194.993066,862.572078 L195.529381,859.991454 L194.188595,860.830934 L192.840933,861.13408 L188.330392,860.527788 L187.388405,860.753204 L186.515175,861.13408 L185.30503,861.359495 L183.689211,860.97862 L180.732606,859.688309 L179.185546,860.069184 L180.395691,861.8181 L181.674594,864.398724 L182.747223,867.06485 L183.01538,869.039182 L183.55857,870.181808 L184.899356,871.775265 L186.583933,872.987847 L187.924719,872.987847 L188.804824,872.459286 L189.540538,872.537015 L190.351885,872.91789 L191.56203,873.368722 L192.366501,873.290993 L196.739526,871.091244 L197.812154,870.181808 L198.623502,868.736037 L199.159816,866.380829 L196.938925,866.528515 L195.529381,865.005015 L195.529381,865.005015 Z M175.280078,855.957287 L174.675005,855.273266 L173.939292,854.666975 L173.127945,854.13064 L172.722271,853.298933 L172.392231,852.311767 L171.718401,851.402331 L171.113328,853.221204 L170.033824,853.679809 L167.75105,853.376663 L166.203989,854.2861 L165.798316,855.273266 L166.403388,855.654141 L167.544775,854.744704 L169.497509,856.260432 L171.381485,857.099912 L175.953908,857.939392 L175.685751,856.874496 L175.280078,855.957287 L175.280078,855.957287 Z M231.111772,866.14764 L230.575458,865.774538 L229.702228,865.46362 L228.492083,865.999954 L225.191687,868.207475 L224.586615,868.362934 L223.713385,868.362934 L217.7933,863.714703 L216.314998,863.256098 L213.152119,862.805266 L211.873215,862.268932 L208.311538,859.004288 L206.290046,858.467953 L205.684973,858.467953 L205.148659,858.693369 L204.275429,859.307433 L203.739115,859.843768 L204.137913,860.2946 L205.348058,860.830934 L206.159405,861.8181 L206.82636,863.030682 L207.36955,864.46868 L206.021889,866.909391 L207.507067,869.272371 L210.394913,871.168974 L212.95272,872.07841 L229.901627,871.619806 L231.785603,871.013515 L232.727591,869.956392 L232.995748,868.510621 L232.796349,868.285205 L231.111772,866.14764 L231.111772,866.14764 Z M638.346228,909.948283 L638.483745,908.580242 L636.324736,906.458223 L635.589023,905.237868 L634.915192,904.476117 L633.705047,903.488951 L628.121877,897.480451 L627.179889,895.809264 L626.842974,895.428389 L625.502188,894.060348 L625.234031,893.6717 L624.690841,892.839993 L624.422684,892.536847 L624.154526,892.381388 L623.817611,892.233702 L622.806865,892.078243 L622.401191,891.852827 L622.071152,891.324265 L621.796119,890.640245 L621.734236,889.34216 L621.734236,888.42495 L621.796119,888.354994 L622.339309,886.831493 L622.875623,885.471225 L622.270551,884.328599 L622.133034,884.243097 L622.002393,882.121078 L621.328563,880.978452 L620.455333,879.991286 L619.712744,878.16464 L619.712744,877.480619 L620.118418,875.125412 L620.118418,874.285932 L619.85026,873.75737 L619.582103,873.290993 L616.082309,861.359495 L614.129574,860.675475 L612.72003,859.385163 L611.977441,857.333101 L612.183716,854.433786 L612.0462,853.151247 L611.640526,851.48006 L610.966695,849.948787 L609.955949,849.194809 L608.88332,848.588518 L608.484523,847.290434 L609.082719,835.281207 L609.151477,834.519456 L597.111909,818.017457 L585.202981,801.437729 L572.826497,784.173979 L561.330118,767.74971 L551.16765,753.144314 L541.012057,738.476734 L530.918347,723.801381 L520.90027,709.195985 L510.875318,694.512859 L500.857242,679.767549 L490.894172,665.092197 L481.006737,650.416844 L469.572241,634.210217 L446.971406,601.820283 L435.805067,585.5437 L424.56997,569.344847 L413.403631,553.076036 L402.30605,536.799453 L391.277228,520.52287 L377.016768,500.981643 L362.81819,481.440416 L348.695247,461.821459 L334.634186,442.194729 L320.648759,422.583545 L306.718338,402.894631 L292.863552,383.182399 L279.077524,363.493485 L279.276923,362.133217 L280.218911,356.575549 L283.175515,338.246903 L286.070237,320.003761 L300.867012,228.74141 L303.761734,210.498267 L309.681819,174.151896 L312.569665,155.893207 L318.496626,119.546835 L321.384472,101.451379 L324.347952,83.278193 L327.235798,65.1749637 L309.544302,61.4439418 L291.852806,57.7284658 L274.230068,53.9896709 L256.607329,50.1187357 L238.915833,46.3177571 L221.293095,42.3613193 L203.670357,38.4126544 L186.040743,34.370714 L168.424881,30.3443195 L150.802143,26.2401954 L133.172529,22.1282983 L115.618549,17.9464446 L97.9889348,13.6868612 L80.4349549,9.35732122 L62.8740992,5.02000824 L45.3201193,0.690468216 L44.9832039,0.535008969 L43.099228,0.0764041917 L43.5049017,2.05850959 L43.5736599,3.11563246 L43.5049017,4.27380385 L41.414651,13.2360294 L40.5414213,14.75953 L38.1898893,18.1019038 L35.8314816,20.3094251 L35.7008409,20.9157162 L37.7842157,22.5091735 L40.6101796,26.0847362 L42.6935544,30.0489469 L42.356639,32.8549863 L41.9578412,34.370714 L42.356639,36.9591105 L42.6935544,39.3920477 L43.099228,40.4647165 L43.2367445,41.0710075 L42.6935544,43.651631 L42.5629137,44.6465702 L42.7623126,45.6259635 L43.1679863,46.543173 L43.7043006,47.3049233 L44.3781314,47.9189873 L43.099228,49.434715 L42.8998291,52.6216296 L42.8310709,58.8633183 L42.0884818,61.7548603 L39.5994334,67.0793395 L38.0592487,72.1006732 L35.226409,78.4045456 L33.2805507,81.5215035 L31.7953726,85.0193366 L30.3858286,86.2319187 L29.9113967,87.7554193 L29.6432395,89.5820654 L29.7119978,90.9578798 L29.3132,92.3259212 L30.7915022,96.7331908 L31.0596594,99.0184417 L30.5233451,101.21819 L23.592514,114.91415 L19.4876468,119.469106 L18.3462599,121.451211 L19.7558039,120.992606 L21.240982,119.546835 L25.4764899,114.300086 L25.8821635,114.07467 L28.6393692,115.131793 L29.4438406,114.91415 L29.9801549,115.6759 L30.2483121,115.823586 L28.7081274,117.797919 L27.2917076,118.32648 L25.7446471,118.256523 L23.7919129,118.559669 L22.5817678,119.546835 L20.0927193,123.044668 L19.1507314,123.728689 L18.2087434,127.607397 L17.2736313,129.348541 L15.8572115,128.135959 L15.0458642,126.923376 L15.1833807,126.542501 L15.9259697,124.645899 L16.3247675,123.961878 L13.7050784,126.464772 L12.0205014,128.594563 L10.5421992,131.408376 L10.6109574,131.719294 L10.7415981,132.240083 L10.8103563,132.70646 L10.4734409,132.78419 L10.2052838,132.78419 L9.9371266,133.009606 L9.66896945,133.312752 L9.33205405,134.377647 L6.64360668,137.789978 L5.8322594,139.088063 L4.62211429,141.598729 L3.48072743,144.109396 L3.00629554,145.702853 L2.40809881,147.078668 L1.39047679,148.602168 L0.65476357,150.040166 L0.586005325,151.408208 L1.25983612,153.763415 L2.07118341,160.23052 L2.07118341,162.811144 L0.386606415,167.226186 L0.118449261,169.581394 L0.991678969,170.949435 L1.86490868,171.781142 L9.19453756,183.121894 L12.4949333,186.619727 L13.5056795,188.283141 L15.3208972,193.312248 L15.3896554,194.066225 L15.1146224,196.343703 L15.2521389,197.260913 L15.719695,197.72729 L17.2736313,198.784413 L17.8099456,199.312975 L19.556405,202.204517 L26.2809614,220.680848 L26.3497196,222.429765 L25.8134053,226.844807 L26.0815625,229.277744 L26.3497196,230.638013 L26.686635,231.322034 L27.4292241,231.866141 L27.628623,232.775578 L27.7661395,233.848246 L27.9655384,234.905369 L28.096179,236.576556 L26.5559943,243.502266 L27.3604658,249.736181 L26.9547922,250.575661 L25.7446471,251.259682 L24.6032602,253.234014 L22.9186832,257.415868 L20.9040666,264.100616 L19.1507314,267.373033 L19.8245622,271.251741 L19.4257644,273.000658 L19.8933204,273.840138 L20.1614776,275.355865 L20.3608765,278.177451 L20.3608765,282.887866 L20.6290337,285.173117 L21.5778974,286.315742 L22.8568008,293.770013 L22.7880425,294.827136 L22.0454535,298.16951 L21.9766953,299.164449 L22.2448524,301.37197 L22.2448524,302.436866 L21.4403809,304.86203 L20.498393,306.012429 L19.3570061,306.688676 L18.0781028,308.212177 L17.8099456,311.259178 L19.1507314,315.052384 L22.8568008,322.203509 L25.944046,326.463093 L26.3497196,327.683448 L26.686635,329.276905 L27.8967801,331.173508 L30.1176714,333.917363 L31.7953726,336.878862 L40.2732642,357.484985 L42.1572401,360.376527 L49.6931437,367.372193 L51.3089624,370.419195 L51.9759174,376.723067 L53.3923373,379.086048 L52.3815911,384.029652 L52.9247812,385.778568 L52.9866636,385.094547 L53.4610955,383.034712 L56.9608902,387.146609 L57.8960023,389.050985 L58.0335188,389.882692 L58.0335188,391.857025 L58.1641594,392.774234 L59.6493375,395.891192 L61.8014706,402.739172 L63.9536036,407.216398 L64.6961927,409.579379 L64.6961927,412.020089 L63.8160871,409.734838 L62.3377849,407.519544 L61.1276398,405.094379 L60.9901233,402.280567 L60.5225672,400.446148 L57.6278451,395.362631 L56.4864583,393.683671 L57.4972045,400.065273 L57.2290473,402.816902 L53.0554219,412.090046 L50.3669745,415.580106 L49.6243854,417.025877 L51.5083613,417.639941 L52.0446757,417.639941 L52.6497482,417.329022 L52.7872647,417.103606 L52.8491471,416.87819 L53.9286516,415.735565 L54.4649659,414.973815 L55.2075549,414.219837 L56.3489418,413.613546 L55.8813857,413.154941 L55.675111,412.696337 L55.2075549,411.180609 L55.8813857,411.095106 L56.4177,410.791961 L56.9608902,410.341129 L57.4972045,409.657108 L58.2329177,412.929526 L59.8487364,415.35469 L63.8848454,418.930252 L64.2217608,419.388857 L64.9643498,420.453753 L65.5006641,421.821794 L65.7000631,424.635607 L66.3738939,425.69273 L67.9209544,427.076317 L68.6635434,428.211169 L69.8736885,431.405857 L70.67816,432.089878 L71.5513897,431.631273 L72.1633381,430.340961 L72.1633381,428.747504 L75.3880997,433.380189 L77.0039185,436.419418 L79.0872933,438.860128 L79.8986406,440.15044 L80.9712692,441.518481 L82.5183297,442.497874 L84.1341485,442.738836 L85.3442936,441.813854 L85.5436925,440.07271 L85.0073782,438.479253 L84.739221,437.188941 L85.8806079,436.194002 L86.2175233,437.872962 L87.0288706,438.704669 L87.7645838,438.323793 L87.9021003,436.730336 L87.3589101,435.129106 L85.5436925,432.540709 L84.8011034,431.024982 L85.3442936,430.869523 L86.0800068,430.263232 L86.5544387,430.037816 L86.0181244,428.825233 L86.2862815,427.752565 L87.1595112,426.990814 L89.3116443,426.687669 L88.77533,425.622773 L87.1595112,423.718397 L86.9601123,421.751838 L87.9639827,415.960981 L88.1014992,413.302628 L90.8587048,413.838962 L92.7426807,413.761232 L94.3584994,412.62638 L96.1805929,410.18567 L102.767633,416.645002 L103.709621,418.627107 L103.847137,419.614273 L104.45221,420.609212 L105.387322,421.370963 L107.546331,422.358129 L110.839851,424.938752 L112.256271,425.241898 L113.198258,425.241898 L114.133371,424.783293 L117.096851,422.731231 L117.633165,422.20267 L118.107597,421.440919 L118.912069,419.536543 L119.248984,419.007982 L120.053455,418.479421 L121.469875,418.020816 L122.879419,417.71767 L123.958924,417.943086 L124.96967,419.233398 L124.832153,420.531483 L122.948178,423.415252 L125.97354,425.241898 L129.473335,426.306794 L128.668864,427.37169 L128.26319,427.752565 L127.658117,428.05571 L128.462589,428.592045 L129.603976,428.747504 L130.951637,428.669774 L132.0999,428.444358 L132.368057,427.37169 L133.241287,427.37169 L135.661577,428.444358 L136.603565,428.592045 L139.360771,428.592045 L140.976589,427.977981 L142.860565,426.306794 L145.686529,422.808961 L146.085327,422.96442 L145.349614,425.164168 L144.407626,426.913085 L143.128722,428.211169 L141.581662,429.050649 L140.770315,429.198336 L139.965843,429.198336 L139.092613,429.276065 L138.350024,429.8124 L138.019985,430.644107 L137.951227,431.553543 L138.150625,432.237564 L138.68694,432.696169 L141.918577,432.773898 L143.733795,432.46298 L144.607025,431.553543 L144.875182,430.185502 L145.218973,429.509254 L146.422242,428.366629 L146.965432,428.141213 L147.36423,428.444358 L147.769904,428.825233 L148.306218,429.128379 L148.711892,429.050649 L149.385723,428.288899 L149.722638,428.141213 L151.400339,428.444358 L152.541726,429.128379 L153.421832,429.960086 L157.457941,435.66544 L158.599327,436.419418 L159.2044,437.336627 L160.146388,439.241003 L160.820219,441.137606 L160.689578,441.891583 L159.610074,441.059876 L158.399929,439.466419 L157.320424,437.569816 L156.921626,436.038543 L155.642723,436.038543 L154.157545,434.82596 L152.07417,432.089878 L151.874771,431.405857 L151.874771,430.566377 L151.737255,429.73467 L151.0703,429.050649 L150.327711,428.97292 L149.65388,429.276065 L149.117566,429.73467 L148.643134,429.882356 L147.096073,429.431525 L146.291602,429.579211 L145.81717,430.340961 L145.617771,431.172668 L145.280855,432.159834 L144.94394,432.999314 L144.538266,433.30246 L143.871311,433.22473 L143.059964,433.450146 L142.386133,433.908751 L142.056094,434.522815 L142.386133,434.82596 L144.338868,436.038543 L142.791807,436.58265 L141.313505,436.038543 L138.68694,434.134167 L130.284682,431.172668 L127.121803,429.128379 L118.705794,426.003648 L117.028093,426.159107 L113.328899,427.830294 L111.58244,427.977981 L110.234778,427.146274 L108.013887,424.099272 L106.604343,423.267565 L104.988524,423.189836 L103.778379,423.718397 L99.74227,426.765398 L98.9377985,426.990814 L97.9270523,426.913085 L97.2532215,426.539983 L96.648149,426.003648 L96.1049589,425.933691 L95.0942127,428.05571 L94.021584,429.431525 L92.6739224,430.418691 L91.4637773,430.418691 L92.7426807,434.297399 L95.3004874,436.419418 L97.3219798,438.860128 L97.1157051,443.795959 L95.4998863,447.301565 L95.0323302,449.501313 L96.1805929,450.713895 L97.5901369,451.327959 L100.952415,453.76867 L102.16256,454.981252 L98.999681,455.665272 L99.4053546,455.890688 L100.347343,456.730168 L99.6047535,458.090437 L100.147944,458.471312 L102.093802,458.549041 L102.836391,459.380748 L103.104548,460.297958 L103.778379,464.487585 L104.720367,476.73 L105.256681,479.085208 L106.129911,480.756395 L107.883246,481.13727 L108.282044,481.440416 L108.550201,481.97675 L108.825234,482.886187 L108.825234,483.414748 L108.618959,484.021039 L108.488319,484.62733 L108.687718,484.930476 L109.224032,485.171437 L110.303536,486.080874 L109.093391,486.842624 L107.546331,486.912581 L106.068029,486.461749 L104.789125,485.474583 L104.184053,484.021039 L103.709621,482.124436 L103.104548,480.686438 L102.16256,480.530979 L101.488729,479.699272 L100.883657,478.626603 L100.216702,477.942582 L98.5321249,478.323458 L98.2639677,477.483978 L98.1952095,476.263623 L98.0645688,475.354186 L97.1157051,474.444749 L96.3799918,474.141604 L95.9674424,473.535313 L96.1049589,471.786396 L95.6992852,471.327792 L93.278995,471.180105 L92.4745235,470.954689 L91.6631763,468.669438 L91.2643784,468.047601 L90.7280641,467.674499 L89.4491608,467.293624 L88.9128465,466.835019 L88.1702574,465.700167 L88.1702574,464.938416 L88.2321398,464.10671 L87.9021003,462.738668 L88.0327409,461.743729 L89.6485597,455.509813 L89.9854751,454.678106 L90.5905476,454.219501 L91.8006927,453.994086 L90.6593059,453.76867 L90.3842729,453.154606 L90.5905476,452.392855 L90.6593059,451.553375 L90.4530311,447.301565 L89.9167168,446.08121 L88.500297,445.404962 L85.4818101,444.860855 L83.9278737,444.860855 L82.7177286,445.474919 L80.7649945,449.120438 L80.4349549,453.535481 L80.6343538,458.090437 L80.2286802,461.976918 L79.4242087,463.725834 L77.6777493,466.384187 L76.9351602,468.669438 L76.5982448,473.232167 L77.2720756,474.28929 L78.1453053,474.670165 L79.0185351,474.895581 L79.7611241,475.431916 L80.4968373,477.414021 L80.4968373,481.89902 L80.9712692,483.943309 L81.6451,485.777728 L81.9820154,487.98525 L81.9820154,490.262728 L81.7757407,492.31479 L80.6343538,496.574373 L79.217934,500.297622 L78.4822207,504.020871 L79.4242087,508.132768 L81.1775439,510.565705 L81.9132572,512.089206 L81.9820154,514.063538 L82.4495715,515.43158 L86.3550398,520.452913 L89.3116443,527.223164 L91.0649795,530.192435 L95.8368017,535.275953 L97.1157051,536.193162 L98.6627656,536.799453 L100.416101,536.799453 L102.093802,536.496308 L103.510222,536.651767 L104.520968,538.175268 L107.140657,537.032642 L109.29279,537.258058 L111.03925,538.937018 L112.524428,542.123932 L115.082234,551.933411 L116.285504,555.058142 L113.734573,560.903409 L114.270887,561.439744 L114.87596,561.742889 L115.54979,561.742889 L116.223621,561.439744 L116.354262,562.279224 L116.354262,562.963244 L116.154863,563.577308 L115.749189,564.1836 L114.133371,563.26639 L113.1295,562.885515 L112.386911,563.802724 L111.176766,568.505367 L110.16602,570.409742 L109.024633,572.088702 L107.74573,573.456744 L106.129911,573.985305 L105.057282,572.998139 L104.184053,571.474638 L102.836391,570.565202 L101.557488,571.093763 L100.278584,572.469577 L98.332726,575.959637 L99.4053546,576.643658 L100.216702,577.630824 L100.952415,578.322618 L101.557488,579.232055 L101.626246,580.685599 L101.151814,581.517306 L99.74227,581.369619 L99.2678381,582.201326 L99.2059557,584.020199 L100.079185,589.204765 L100.079185,593.604262 L99.4741128,598.019305 L99.4741128,598.858785 L99.8729107,601.967969 L99.8729107,603.180552 L99.8110282,603.950075 L99.8729107,604.556366 L100.216702,605.629035 L100.883657,606.460742 L101.557488,607.067033 L102.093802,607.828783 L102.093802,609.266781 L102.231318,610.331677 L102.836391,611.544259 L103.640862,612.469242 L105.662355,613.681824 L111.651198,620.452074 L113.267017,623.499075 L115.749189,631.256492 L116.285504,635.127427 L116.828694,637.109532 L117.83944,638.166655 L119.517141,638.772946 L120.796045,639.845615 L121.806791,641.135927 L122.473746,642.651654 L122.948178,644.400571 L123.216335,646.460406 L123.285093,648.667927 L123.085694,651.023135 L123.147576,653.067424 L123.958924,654.824113 L125.97354,657.793385 L127.183685,661.058029 L127.995033,662.58153 L130.284682,664.711321 L130.752238,667.144259 L130.752238,671.706987 L132.498698,678.391735 L133.983876,679.075756 L137.751828,682.503632 L140.234,683.568528 L141.918577,686.607756 L143.266239,691.862279 L145.218973,695.733214 L146.759158,699.308777 L148.443735,701.96713 L150.258952,704.019192 L155.03765,706.001297 L156.715352,707.299382 L157.389182,708.73738 L157.588581,710.330837 L157.794856,713.152423 L158.124896,714.442734 L159.2044,716.953401 L159.541315,718.469129 L158.262412,719.07542 L157.121025,719.005463 L156.78411,718.321443 L157.726098,716.727985 L157.320424,715.966235 L154.226303,722.044692 L153.49059,725.620254 L153.421832,727.369171 L153.889388,729.040358 L155.436448,731.395565 L159.472557,734.364837 L161.088376,736.26144 L161.49405,735.880564 L162.834835,735.655149 L164.450654,735.732878 L165.530159,736.113753 L166.066473,736.797774 L167.145977,738.70215 L167.75105,739.152982 L168.961195,739.992462 L169.428751,740.598753 L169.566267,743.79344 L169.359993,747.369003 L168.486763,751.247711 L167.345376,755.118646 L164.051856,760.97946 L163.378025,763.256938 L163.577424,764.174147 L165.392642,766.840273 L165.867074,767.67198 L166.135231,768.58919 L166.33463,769.498627 L166.33463,770.633479 L165.798316,772.99646 L164.051856,776.727482 L163.378025,778.92723 L164.051856,780.598417 L164.519412,782.572749 L164.787569,784.632584 L164.120615,787.213208 L163.171751,788.884395 L162.298521,790.182479 L161.555932,791.62825 L160.283904,794.667479 L159.341917,796.183206 L159.610074,797.473518 L160.352663,798.623916 L162.16788,799.688812 L164.251255,800.909167 L165.935832,801.212313 L168.287364,804.243768 L169.834425,808.130249 L170.907053,812.38206 L174.069933,813.14381 L181.268921,812.918394 L192.366501,814.434122 L195.866296,815.506791 L198.761018,817.558853 L202.728369,817.108021 L206.764478,819.688644 L213.626551,825.549458 L215.036095,825.549458 L216.78943,825.08308 L218.467131,824.935394 L219.608518,825.774874 L220.419865,826.83977 L221.898168,828.355497 L223.582745,829.645809 L224.861648,830.104414 L225.865518,829.568079 L226.608107,828.736373 L227.481337,828.130081 L231.318047,827.896893 L232.796349,828.814102 L234.611567,829.039518 L235.484797,829.342664 L236.227386,829.948955 L237.63693,831.93106 L241.941196,835.281207 L244.499003,836.719205 L251.966148,847.43812 L252.908136,848.19987 L254.661471,848.510789 L255.465943,848.813934 L256.139773,849.497955 L256.270414,850.407392 L256.139773,851.48006 L256.208532,852.467227 L257.081761,853.298933 L256.538571,854.363829 L256.538571,855.801827 L257.013003,857.333101 L257.549317,858.771099 L257.748716,859.462893 L257.817475,860.753204 L257.954991,861.281766 L258.291906,861.662641 L258.965737,861.965786 L259.364535,862.346662 L262.121741,866.380829 L263.875076,867.982059 L266.226608,868.58835 L265.215862,868.129746 L264.610789,867.74887 L264.074475,867.74887 L263.875076,866.753931 L266.226608,867.8266 L271.741019,873.290993 L278.809367,877.177474 L282.432926,878.320099 L285.128249,880.294432 L286.200878,881.957846 L287.747938,881.351555 L289.301875,880.900723 L300.330697,881.584743 L301.341443,881.887889 L302.015274,882.424223 L302.620347,882.579683 L303.493577,882.346494 L304.703722,881.810159 L306.450181,882.649639 L308.471673,884.787204 L310.417532,887.515514 L312.507782,893.065409 L313.518529,898.094515 L314.522399,902.113137 L314.728674,904.017513 L314.591157,905.541013 L314.054843,908.81343 L313.250371,910.103742 L311.964592,911.246368 L311.366396,912.839825 L312.507782,915.350492 L312.975338,915.809097 L313.717927,916.267701 L314.522399,916.485344 L315.333746,916.189972 L316.138218,916.112242 L316.74329,917.177138 L317.348363,918.46745 L318.022194,919.159243 L318.696024,919.540118 L319.500496,920.14641 L320.311843,920.597241 L321.185073,920.519512 L321.652629,919.913221 L321.852028,919.159243 L321.920786,918.164304 L322.862774,915.280535 L323.405964,914.736428 L324.409835,914.736428 L325.014907,914.588741 L325.688738,914.285596 L326.431327,914.207866 L328.047146,916.112242 L329.257291,916.337658 L330.804351,916.407615 L332.75021,916.943949 L334.029113,917.931115 L342.575763,931.238427 L344.796654,934.060012 L352.93763,940.900219 L356.031751,944.7867 L358.452041,949.87799 L359.861586,951.090573 L362.81819,953.982115 L363.897694,955.272426 L367.52813,961.280926 L373.654489,968.051176 L382.125505,986.760697 L384.820828,997.021007 L385.556542,1002.49317 L385.487783,1004.40532 L385.962215,1005.75782 L386.49853,1016.34459 L386.230372,1017.93805 L385.219626,1019.83465 L384.215756,1020.75186 L383.473167,1021.73903 L383.273768,1023.93878 L384.683312,1027.51434 L384.75207,1029.03784 L384.346396,1031.0899 L383.136251,1035.4894 L383.20501,1036.56207 L383.672566,1038.46644 L383.810082,1039.82671 L384.284514,1039.00278 L385.157744,1035.87805 L386.024098,1034.89088 L387.103602,1034.51778 L387.639916,1034.58773 L388.91882,1035.12407 L390.067082,1036.18119 L391.682901,1037.32382 L392.349856,1038.31876 L393.360602,1040.5185 L394.103191,1043.02917 L394.103191,1044.92577 L393.429361,1045.68752 L392.487373,1045.22892 L392.081699,1043.78315 L391.277228,1041.66113 L390.734037,1039.60129 L389.929566,1038.54417 L389.998324,1037.16836 L388.650663,1036.25892 L387.578034,1036.0335 L386.704804,1037.02067 L385.962215,1037.93788 L388.114348,1038.31876 L389.592651,1039.98994 L390.534638,1042.50061 L391.407868,1045.76525 L391.33911,1048.35365 L390.734037,1050.70886 L390.802796,1053.67036 L391.277228,1054.51761 L396.922279,1054.89848 L402.505449,1055.27159 L408.157377,1055.73019 L413.809304,1056.11107 L419.392474,1056.49194 L425.044401,1056.87282 L430.696329,1057.24592 L436.341381,1057.70452 L441.924551,1058.0854 L447.576478,1058.46627 L453.228406,1058.77719 L458.811575,1059.15029 L464.463503,1059.53117 L470.108555,1059.91205 L475.760483,1060.21519 L486.99558,1060.96917 L492.647508,1061.28009 L498.230677,1061.58323 L503.882605,1061.96411 L509.527657,1062.26725 L515.110826,1062.5704 L520.762754,1062.95905 L526.414682,1063.26219 L531.997851,1063.56534 L537.649779,1063.86848 L543.294831,1064.17163 L548.878,1064.47477 L554.529928,1064.77792 L560.181856,1065.00334 L565.765025,1065.29871 L571.416953,1065.6174 L574.511074,1065.76509 L574.511074,1065.92055 L574.97863,1064.63023 L578.141509,1062.71808 L585.814929,1065.68736 L589.108449,1065.38421 L589.981679,1063.94621 L590.318594,1062.11179 L590.449235,1060.29292 L590.923667,1058.544 L592.065054,1057.32365 L595.159175,1055.58251 L596.169921,1054.36215 L596.637477,1052.23236 L596.169921,1045.53984 L596.438078,1044.24175 L596.706235,1043.33232 L596.843752,1042.34515 L596.706235,1040.97711 L595.028534,1037.24609 L592.601368,1035.19403 L585.814929,1033.60057 L582.98209,1031.85165 L581.166872,1027.89521 L581.840703,1024.39738 L583.387763,1020.75186 L584.329751,1016.41455 L584.260993,1010.48378 L583.930953,1009.03801 L581.909461,1005.6179 L581.909461,1004.0944 L582.98209,1001.35055 L583.992836,1000.44888 L584.398509,999.609403 L584.061594,998.466778 L583.587162,997.557341 L582.920207,996.11157 L582.713932,994.891215 L583.52528,994.432611 L587.224473,994.735756 L589.170332,994.362654 L590.65551,993.445444 L594.086546,987.895549 L595.097292,985.540342 L595.970522,984.615359 L597.648223,983.107404 L598.865244,981.80932 L599.195284,981.125299 L599.600957,979.834987 L599.463441,977.549736 L599.669716,976.189468 L600.336671,975.730863 L600.673586,975.272258 L600.879861,974.137406 L601.07926,971.929885 L601.684332,969.489174 L602.695078,968.198863 L603.705825,967.133967 L604.372779,965.773698 L603.767707,963.791593 L603.568308,962.648968 L604.04274,962.198136 L604.372779,961.661801 L604.579054,960.519176 L604.647812,959.306594 L604.441538,958.700303 L603.637066,957.479948 L603.705825,954.969281 L603.973982,952.380884 L603.973982,950.865157 L605.521042,949.800261 L606.187997,948.968554 L606.187997,948.043571 L604.984728,945.843823 L604.510296,944.631241 L604.372779,943.410886 L605.115369,941.211137 L606.46303,939.983009 L609.687792,938.241866 L611.035453,937.021511 L612.451873,935.57574 L613.524502,933.756867 L614.604006,929.497283 L615.607877,927.748367 L616.955538,926.450282 L619.781502,925.921721 L628.121877,920.892614 L629.600179,920.674971 L632.357385,917.558013 L635.183349,915.125076 L637.741156,913.446116 L638.545627,912.155804 L638.346228,909.948283 L638.346228,909.948283 Z M45.3888776,446.011253 L44.9832039,446.462085 L45.0519622,446.765231 L44.9832039,446.92069 L45.0519622,446.765231 L45.1138446,446.84296 L44.9832039,446.998419 L45.4576358,446.08121 L45.3888776,446.158939 L45.3888776,446.011253 L45.3888776,446.011253 Z M88.5690552,438.556982 L88.4384146,438.782398 L88.1014992,438.704669 L87.833342,439.085544 L87.7645838,439.917251 L87.7645838,439.99498 L88.1702574,440.375856 L88.77533,440.298126 L89.3804025,439.163273 L89.3116443,439.163273 L89.3804025,439.163273 L88.5690552,438.556982 L88.5690552,438.556982 Z M91.8006927,443.422857 L91.8006927,444.713168 L91.869451,444.783125 L92.4745235,446.08121 L92.61204,445.778064 L92.61204,445.708108 L92.2063664,445.404962 L92.61204,443.726002 L91.8006927,443.422857 L91.8006927,443.422857 Z M242.951942,873.368722 L241.941196,872.91789 L241.336123,872.381556 L240.531652,871.922951 L239.789063,871.775265 L239.589664,872.07841 L239.72718,872.381556 L240.868567,873.368722 L241.542398,873.368722 L242.546268,873.679641 L243.625773,873.601911 L243.557015,873.290993 L242.951942,873.368722 L242.951942,873.368722 Z M261.9911,931.090741 L261.44791,931.316156 L260.643438,931.393886 L260.375281,931.541572 L260.512798,932.00795 L260.643438,932.917387 L260.842837,933.445948 L260.842837,933.515905 L261.853584,932.00795 L261.9911,931.16847 L261.922342,931.16847 L261.9911,931.090741 L261.9911,931.090741 Z" id="Fill-92" fill="#878787"></path>
                    <path d="M298.714879,1003.02951 L296.562745,998.311319 L293.399866,994.51034 L292.127839,992.458278 L291.454008,989.496779 L291.117092,988.727256 L290.780177,987.670133 L290.51202,986.449778 L290.51202,985.462612 L290.312621,984.545402 L289.501274,984.094571 L288.490528,983.713696 L287.686056,983.029675 L287.149742,985.384882 L287.954213,988.198695 L288.964959,990.94255 L289.700673,995.038902 L291.921564,1000.06801 L292.732911,1003.94672 L294.142455,1005.83555 L295.827032,1007.43678 L297.167818,1008.35399 L297.910407,1008.58717 L298.446721,1008.43172 L298.983036,1008.2063 L299.526226,1008.12857 L301.609601,1008.58717 L302.551589,1008.58717 L303.493577,1008.2063 L300.468214,1004.47528 L298.714879,1003.02951 L298.714879,1003.02951 Z M225.528603,947.289594 L223.307712,945.766093 L223.039554,945.315262 L221.966926,944.164863 L221.155578,944.708971 L220.213591,944.934386 L219.278478,944.7867 L218.329615,944.094906 L218.735288,947.211864 L220.213591,949.722531 L222.434482,951.549177 L225.129805,952.6063 L227.749494,952.155468 L227.412579,949.95572 L225.528603,947.289594 L225.528603,947.289594 Z M310.218133,949.038511 L304.22929,945.012116 L303.019145,944.398052 L298.584238,939.983009 L296.700262,939.073573 L294.885044,938.995843 L294.073697,940.293928 L294.747528,941.739699 L296.294588,943.177697 L298.109806,944.242593 L299.526226,944.7867 L301.410202,945.696137 L301.877758,947.289594 L301.410202,951.549177 L301.47896,953.904385 L301.877758,955.808761 L302.750987,957.176802 L304.366806,957.860823 L305.109395,957.783093 L307.124012,957.176802 L307.935359,957.106845 L308.877347,957.557677 L311.160121,959.835155 L312.569665,960.363717 L313.848568,960.060571 L314.391758,958.700303 L311.098238,950.476509 L310.218133,949.038511 L310.218133,949.038511 Z M195.529381,865.005015 L194.993066,862.572078 L195.529381,859.991454 L194.188595,860.830934 L192.840933,861.13408 L188.330392,860.527788 L187.388405,860.753204 L186.515175,861.13408 L185.30503,861.359495 L183.689211,860.97862 L180.732606,859.688309 L179.185546,860.069184 L180.395691,861.8181 L181.674594,864.398724 L182.747223,867.06485 L183.01538,869.039182 L183.55857,870.181808 L184.899356,871.775265 L186.583933,872.987847 L187.924719,872.987847 L188.804824,872.459286 L189.540538,872.537015 L190.351885,872.91789 L191.56203,873.368722 L192.366501,873.290993 L196.739526,871.091244 L197.812154,870.181808 L198.623502,868.736037 L199.159816,866.380829 L196.938925,866.528515 L195.529381,865.005015 L195.529381,865.005015 Z M175.280078,855.957287 L174.675005,855.273266 L173.939292,854.666975 L173.127945,854.13064 L172.722271,853.298933 L172.392231,852.311767 L171.718401,851.402331 L171.113328,853.221204 L170.033824,853.679809 L167.75105,853.376663 L166.203989,854.2861 L165.798316,855.273266 L166.403388,855.654141 L167.544775,854.744704 L169.497509,856.260432 L171.381485,857.099912 L175.953908,857.939392 L175.685751,856.874496 L175.280078,855.957287 L175.280078,855.957287 Z M231.111772,866.14764 L230.575458,865.774538 L229.702228,865.46362 L228.492083,865.999954 L225.191687,868.207475 L224.586615,868.362934 L223.713385,868.362934 L217.7933,863.714703 L216.314998,863.256098 L213.152119,862.805266 L211.873215,862.268932 L208.311538,859.004288 L206.290046,858.467953 L205.684973,858.467953 L205.148659,858.693369 L204.275429,859.307433 L203.739115,859.843768 L204.137913,860.2946 L205.348058,860.830934 L206.159405,861.8181 L206.82636,863.030682 L207.36955,864.46868 L206.021889,866.909391 L207.507067,869.272371 L210.394913,871.168974 L212.95272,872.07841 L229.901627,871.619806 L231.785603,871.013515 L232.727591,869.956392 L232.995748,868.510621 L232.796349,868.285205 L231.111772,866.14764 L231.111772,866.14764 Z M638.346228,909.948283 L638.483745,908.580242 L636.324736,906.458223 L635.589023,905.237868 L634.915192,904.476117 L633.705047,903.488951 L628.121877,897.480451 L627.179889,895.809264 L626.842974,895.428389 L625.502188,894.060348 L625.234031,893.6717 L624.690841,892.839993 L624.422684,892.536847 L624.154526,892.381388 L623.817611,892.233702 L622.806865,892.078243 L622.401191,891.852827 L622.071152,891.324265 L621.796119,890.640245 L621.734236,889.34216 L621.734236,888.42495 L621.796119,888.354994 L622.339309,886.831493 L622.875623,885.471225 L622.270551,884.328599 L622.133034,884.243097 L622.002393,882.121078 L621.328563,880.978452 L620.455333,879.991286 L619.712744,878.16464 L619.712744,877.480619 L620.118418,875.125412 L620.118418,874.285932 L619.85026,873.75737 L619.582103,873.290993 L616.082309,861.359495 L614.129574,860.675475 L612.72003,859.385163 L611.977441,857.333101 L612.183716,854.433786 L612.0462,853.151247 L611.640526,851.48006 L610.966695,849.948787 L609.955949,849.194809 L608.88332,848.588518 L608.484523,847.290434 L609.082719,835.281207 L609.151477,834.519456 L597.111909,818.017457 L585.202981,801.437729 L572.826497,784.173979 L561.330118,767.74971 L551.16765,753.144314 L541.012057,738.476734 L530.918347,723.801381 L520.90027,709.195985 L510.875318,694.512859 L500.857242,679.767549 L490.894172,665.092197 L481.006737,650.416844 L469.572241,634.210217 L446.971406,601.820283 L435.805067,585.5437 L424.56997,569.344847 L413.403631,553.076036 L402.30605,536.799453 L391.277228,520.52287 L377.016768,500.981643 L362.81819,481.440416 L348.695247,461.821459 L334.634186,442.194729 L320.648759,422.583545 L306.718338,402.894631 L292.863552,383.182399 L279.077524,363.493485 L279.276923,362.133217 L280.218911,356.575549 L283.175515,338.246903 L286.070237,320.003761 L300.867012,228.74141 L303.761734,210.498267 L309.681819,174.151896 L312.569665,155.893207 L318.496626,119.546835 L321.384472,101.451379 L324.347952,83.278193 L327.235798,65.1749637 L309.544302,61.4439418 L291.852806,57.7284658 L274.230068,53.9896709 L256.607329,50.1187357 L238.915833,46.3177571 L221.293095,42.3613193 L203.670357,38.4126544 L186.040743,34.370714 L168.424881,30.3443195 L150.802143,26.2401954 L133.172529,22.1282983 L115.618549,17.9464446 L97.9889348,13.6868612 L80.4349549,9.35732122 L62.8740992,5.02000824 L45.3201193,0.690468216 L44.9832039,0.535008969 L43.099228,0.0764041917 L43.5049017,2.05850959 L43.5736599,3.11563246 L43.5049017,4.27380385 L41.414651,13.2360294 L40.5414213,14.75953 L38.1898893,18.1019038 L35.8314816,20.3094251 L35.7008409,20.9157162 L37.7842157,22.5091735 L40.6101796,26.0847362 L42.6935544,30.0489469 L42.356639,32.8549863 L41.9578412,34.370714 L42.356639,36.9591105 L42.6935544,39.3920477 L43.099228,40.4647165 L43.2367445,41.0710075 L42.6935544,43.651631 L42.5629137,44.6465702 L42.7623126,45.6259635 L43.1679863,46.543173 L43.7043006,47.3049233 L44.3781314,47.9189873 L43.099228,49.434715 L42.8998291,52.6216296 L42.8310709,58.8633183 L42.0884818,61.7548603 L39.5994334,67.0793395 L38.0592487,72.1006732 L35.226409,78.4045456 L33.2805507,81.5215035 L31.7953726,85.0193366 L30.3858286,86.2319187 L29.9113967,87.7554193 L29.6432395,89.5820654 L29.7119978,90.9578798 L29.3132,92.3259212 L30.7915022,96.7331908 L31.0596594,99.0184417 L30.5233451,101.21819 L23.592514,114.91415 L19.4876468,119.469106 L18.3462599,121.451211 L19.7558039,120.992606 L21.240982,119.546835 L25.4764899,114.300086 L25.8821635,114.07467 L28.6393692,115.131793 L29.4438406,114.91415 L29.9801549,115.6759 L30.2483121,115.823586 L28.7081274,117.797919 L27.2917076,118.32648 L25.7446471,118.256523 L23.7919129,118.559669 L22.5817678,119.546835 L20.0927193,123.044668 L19.1507314,123.728689 L18.2087434,127.607397 L17.2736313,129.348541 L15.8572115,128.135959 L15.0458642,126.923376 L15.1833807,126.542501 L15.9259697,124.645899 L16.3247675,123.961878 L13.7050784,126.464772 L12.0205014,128.594563 L10.5421992,131.408376 L10.6109574,131.719294 L10.7415981,132.240083 L10.8103563,132.70646 L10.4734409,132.78419 L10.2052838,132.78419 L9.9371266,133.009606 L9.66896945,133.312752 L9.33205405,134.377647 L6.64360668,137.789978 L5.8322594,139.088063 L4.62211429,141.598729 L3.48072743,144.109396 L3.00629554,145.702853 L2.40809881,147.078668 L1.39047679,148.602168 L0.65476357,150.040166 L0.586005325,151.408208 L1.25983612,153.763415 L2.07118341,160.23052 L2.07118341,162.811144 L0.386606415,167.226186 L0.118449261,169.581394 L0.991678969,170.949435 L1.86490868,171.781142 L9.19453756,183.121894 L12.4949333,186.619727 L13.5056795,188.283141 L15.3208972,193.312248 L15.3896554,194.066225 L15.1146224,196.343703 L15.2521389,197.260913 L15.719695,197.72729 L17.2736313,198.784413 L17.8099456,199.312975 L19.556405,202.204517 L26.2809614,220.680848 L26.3497196,222.429765 L25.8134053,226.844807 L26.0815625,229.277744 L26.3497196,230.638013 L26.686635,231.322034 L27.4292241,231.866141 L27.628623,232.775578 L27.7661395,233.848246 L27.9655384,234.905369 L28.096179,236.576556 L26.5559943,243.502266 L27.3604658,249.736181 L26.9547922,250.575661 L25.7446471,251.259682 L24.6032602,253.234014 L22.9186832,257.415868 L20.9040666,264.100616 L19.1507314,267.373033 L19.8245622,271.251741 L19.4257644,273.000658 L19.8933204,273.840138 L20.1614776,275.355865 L20.3608765,278.177451 L20.3608765,282.887866 L20.6290337,285.173117 L21.5778974,286.315742 L22.8568008,293.770013 L22.7880425,294.827136 L22.0454535,298.16951 L21.9766953,299.164449 L22.2448524,301.37197 L22.2448524,302.436866 L21.4403809,304.86203 L20.498393,306.012429 L19.3570061,306.688676 L18.0781028,308.212177 L17.8099456,311.259178 L19.1507314,315.052384 L22.8568008,322.203509 L25.944046,326.463093 L26.3497196,327.683448 L26.686635,329.276905 L27.8967801,331.173508 L30.1176714,333.917363 L31.7953726,336.878862 L40.2732642,357.484985 L42.1572401,360.376527 L49.6931437,367.372193 L51.3089624,370.419195 L51.9759174,376.723067 L53.3923373,379.086048 L52.3815911,384.029652 L52.9247812,385.778568 L52.9866636,385.094547 L53.4610955,383.034712 L56.9608902,387.146609 L57.8960023,389.050985 L58.0335188,389.882692 L58.0335188,391.857025 L58.1641594,392.774234 L59.6493375,395.891192 L61.8014706,402.739172 L63.9536036,407.216398 L64.6961927,409.579379 L64.6961927,412.020089 L63.8160871,409.734838 L62.3377849,407.519544 L61.1276398,405.094379 L60.9901233,402.280567 L60.5225672,400.446148 L57.6278451,395.362631 L56.4864583,393.683671 L57.4972045,400.065273 L57.2290473,402.816902 L53.0554219,412.090046 L50.3669745,415.580106 L49.6243854,417.025877 L51.5083613,417.639941 L52.0446757,417.639941 L52.6497482,417.329022 L52.7872647,417.103606 L52.8491471,416.87819 L53.9286516,415.735565 L54.4649659,414.973815 L55.2075549,414.219837 L56.3489418,413.613546 L55.8813857,413.154941 L55.675111,412.696337 L55.2075549,411.180609 L55.8813857,411.095106 L56.4177,410.791961 L56.9608902,410.341129 L57.4972045,409.657108 L58.2329177,412.929526 L59.8487364,415.35469 L63.8848454,418.930252 L64.2217608,419.388857 L64.9643498,420.453753 L65.5006641,421.821794 L65.7000631,424.635607 L66.3738939,425.69273 L67.9209544,427.076317 L68.6635434,428.211169 L69.8736885,431.405857 L70.67816,432.089878 L71.5513897,431.631273 L72.1633381,430.340961 L72.1633381,428.747504 L75.3880997,433.380189 L77.0039185,436.419418 L79.0872933,438.860128 L79.8986406,440.15044 L80.9712692,441.518481 L82.5183297,442.497874 L84.1341485,442.738836 L85.3442936,441.813854 L85.5436925,440.07271 L85.0073782,438.479253 L84.739221,437.188941 L85.8806079,436.194002 L86.2175233,437.872962 L87.0288706,438.704669 L87.7645838,438.323793 L87.9021003,436.730336 L87.3589101,435.129106 L85.5436925,432.540709 L84.8011034,431.024982 L85.3442936,430.869523 L86.0800068,430.263232 L86.5544387,430.037816 L86.0181244,428.825233 L86.2862815,427.752565 L87.1595112,426.990814 L89.3116443,426.687669 L88.77533,425.622773 L87.1595112,423.718397 L86.9601123,421.751838 L87.9639827,415.960981 L88.1014992,413.302628 L90.8587048,413.838962 L92.7426807,413.761232 L94.3584994,412.62638 L96.1805929,410.18567 L102.767633,416.645002 L103.709621,418.627107 L103.847137,419.614273 L104.45221,420.609212 L105.387322,421.370963 L107.546331,422.358129 L110.839851,424.938752 L112.256271,425.241898 L113.198258,425.241898 L114.133371,424.783293 L117.096851,422.731231 L117.633165,422.20267 L118.107597,421.440919 L118.912069,419.536543 L119.248984,419.007982 L120.053455,418.479421 L121.469875,418.020816 L122.879419,417.71767 L123.958924,417.943086 L124.96967,419.233398 L124.832153,420.531483 L122.948178,423.415252 L125.97354,425.241898 L129.473335,426.306794 L128.668864,427.37169 L128.26319,427.752565 L127.658117,428.05571 L128.462589,428.592045 L129.603976,428.747504 L130.951637,428.669774 L132.0999,428.444358 L132.368057,427.37169 L133.241287,427.37169 L135.661577,428.444358 L136.603565,428.592045 L139.360771,428.592045 L140.976589,427.977981 L142.860565,426.306794 L145.686529,422.808961 L146.085327,422.96442 L145.349614,425.164168 L144.407626,426.913085 L143.128722,428.211169 L141.581662,429.050649 L140.770315,429.198336 L139.965843,429.198336 L139.092613,429.276065 L138.350024,429.8124 L138.019985,430.644107 L137.951227,431.553543 L138.150625,432.237564 L138.68694,432.696169 L141.918577,432.773898 L143.733795,432.46298 L144.607025,431.553543 L144.875182,430.185502 L145.218973,429.509254 L146.422242,428.366629 L146.965432,428.141213 L147.36423,428.444358 L147.769904,428.825233 L148.306218,429.128379 L148.711892,429.050649 L149.385723,428.288899 L149.722638,428.141213 L151.400339,428.444358 L152.541726,429.128379 L153.421832,429.960086 L157.457941,435.66544 L158.599327,436.419418 L159.2044,437.336627 L160.146388,439.241003 L160.820219,441.137606 L160.689578,441.891583 L159.610074,441.059876 L158.399929,439.466419 L157.320424,437.569816 L156.921626,436.038543 L155.642723,436.038543 L154.157545,434.82596 L152.07417,432.089878 L151.874771,431.405857 L151.874771,430.566377 L151.737255,429.73467 L151.0703,429.050649 L150.327711,428.97292 L149.65388,429.276065 L149.117566,429.73467 L148.643134,429.882356 L147.096073,429.431525 L146.291602,429.579211 L145.81717,430.340961 L145.617771,431.172668 L145.280855,432.159834 L144.94394,432.999314 L144.538266,433.30246 L143.871311,433.22473 L143.059964,433.450146 L142.386133,433.908751 L142.056094,434.522815 L142.386133,434.82596 L144.338868,436.038543 L142.791807,436.58265 L141.313505,436.038543 L138.68694,434.134167 L130.284682,431.172668 L127.121803,429.128379 L118.705794,426.003648 L117.028093,426.159107 L113.328899,427.830294 L111.58244,427.977981 L110.234778,427.146274 L108.013887,424.099272 L106.604343,423.267565 L104.988524,423.189836 L103.778379,423.718397 L99.74227,426.765398 L98.9377985,426.990814 L97.9270523,426.913085 L97.2532215,426.539983 L96.648149,426.003648 L96.1049589,425.933691 L95.0942127,428.05571 L94.021584,429.431525 L92.6739224,430.418691 L91.4637773,430.418691 L92.7426807,434.297399 L95.3004874,436.419418 L97.3219798,438.860128 L97.1157051,443.795959 L95.4998863,447.301565 L95.0323302,449.501313 L96.1805929,450.713895 L97.5901369,451.327959 L100.952415,453.76867 L102.16256,454.981252 L98.999681,455.665272 L99.4053546,455.890688 L100.347343,456.730168 L99.6047535,458.090437 L100.147944,458.471312 L102.093802,458.549041 L102.836391,459.380748 L103.104548,460.297958 L103.778379,464.487585 L104.720367,476.73 L105.256681,479.085208 L106.129911,480.756395 L107.883246,481.13727 L108.282044,481.440416 L108.550201,481.97675 L108.825234,482.886187 L108.825234,483.414748 L108.618959,484.021039 L108.488319,484.62733 L108.687718,484.930476 L109.224032,485.171437 L110.303536,486.080874 L109.093391,486.842624 L107.546331,486.912581 L106.068029,486.461749 L104.789125,485.474583 L104.184053,484.021039 L103.709621,482.124436 L103.104548,480.686438 L102.16256,480.530979 L101.488729,479.699272 L100.883657,478.626603 L100.216702,477.942582 L98.5321249,478.323458 L98.2639677,477.483978 L98.1952095,476.263623 L98.0645688,475.354186 L97.1157051,474.444749 L96.3799918,474.141604 L95.9674424,473.535313 L96.1049589,471.786396 L95.6992852,471.327792 L93.278995,471.180105 L92.4745235,470.954689 L91.6631763,468.669438 L91.2643784,468.047601 L90.7280641,467.674499 L89.4491608,467.293624 L88.9128465,466.835019 L88.1702574,465.700167 L88.1702574,464.938416 L88.2321398,464.10671 L87.9021003,462.738668 L88.0327409,461.743729 L89.6485597,455.509813 L89.9854751,454.678106 L90.5905476,454.219501 L91.8006927,453.994086 L90.6593059,453.76867 L90.3842729,453.154606 L90.5905476,452.392855 L90.6593059,451.553375 L90.4530311,447.301565 L89.9167168,446.08121 L88.500297,445.404962 L85.4818101,444.860855 L83.9278737,444.860855 L82.7177286,445.474919 L80.7649945,449.120438 L80.4349549,453.535481 L80.6343538,458.090437 L80.2286802,461.976918 L79.4242087,463.725834 L77.6777493,466.384187 L76.9351602,468.669438 L76.5982448,473.232167 L77.2720756,474.28929 L78.1453053,474.670165 L79.0185351,474.895581 L79.7611241,475.431916 L80.4968373,477.414021 L80.4968373,481.89902 L80.9712692,483.943309 L81.6451,485.777728 L81.9820154,487.98525 L81.9820154,490.262728 L81.7757407,492.31479 L80.6343538,496.574373 L79.217934,500.297622 L78.4822207,504.020871 L79.4242087,508.132768 L81.1775439,510.565705 L81.9132572,512.089206 L81.9820154,514.063538 L82.4495715,515.43158 L86.3550398,520.452913 L89.3116443,527.223164 L91.0649795,530.192435 L95.8368017,535.275953 L97.1157051,536.193162 L98.6627656,536.799453 L100.416101,536.799453 L102.093802,536.496308 L103.510222,536.651767 L104.520968,538.175268 L107.140657,537.032642 L109.29279,537.258058 L111.03925,538.937018 L112.524428,542.123932 L115.082234,551.933411 L116.285504,555.058142 L113.734573,560.903409 L114.270887,561.439744 L114.87596,561.742889 L115.54979,561.742889 L116.223621,561.439744 L116.354262,562.279224 L116.354262,562.963244 L116.154863,563.577308 L115.749189,564.1836 L114.133371,563.26639 L113.1295,562.885515 L112.386911,563.802724 L111.176766,568.505367 L110.16602,570.409742 L109.024633,572.088702 L107.74573,573.456744 L106.129911,573.985305 L105.057282,572.998139 L104.184053,571.474638 L102.836391,570.565202 L101.557488,571.093763 L100.278584,572.469577 L98.332726,575.959637 L99.4053546,576.643658 L100.216702,577.630824 L100.952415,578.322618 L101.557488,579.232055 L101.626246,580.685599 L101.151814,581.517306 L99.74227,581.369619 L99.2678381,582.201326 L99.2059557,584.020199 L100.079185,589.204765 L100.079185,593.604262 L99.4741128,598.019305 L99.4741128,598.858785 L99.8729107,601.967969 L99.8729107,603.180552 L99.8110282,603.950075 L99.8729107,604.556366 L100.216702,605.629035 L100.883657,606.460742 L101.557488,607.067033 L102.093802,607.828783 L102.093802,609.266781 L102.231318,610.331677 L102.836391,611.544259 L103.640862,612.469242 L105.662355,613.681824 L111.651198,620.452074 L113.267017,623.499075 L115.749189,631.256492 L116.285504,635.127427 L116.828694,637.109532 L117.83944,638.166655 L119.517141,638.772946 L120.796045,639.845615 L121.806791,641.135927 L122.473746,642.651654 L122.948178,644.400571 L123.216335,646.460406 L123.285093,648.667927 L123.085694,651.023135 L123.147576,653.067424 L123.958924,654.824113 L125.97354,657.793385 L127.183685,661.058029 L127.995033,662.58153 L130.284682,664.711321 L130.752238,667.144259 L130.752238,671.706987 L132.498698,678.391735 L133.983876,679.075756 L137.751828,682.503632 L140.234,683.568528 L141.918577,686.607756 L143.266239,691.862279 L145.218973,695.733214 L146.759158,699.308777 L148.443735,701.96713 L150.258952,704.019192 L155.03765,706.001297 L156.715352,707.299382 L157.389182,708.73738 L157.588581,710.330837 L157.794856,713.152423 L158.124896,714.442734 L159.2044,716.953401 L159.541315,718.469129 L158.262412,719.07542 L157.121025,719.005463 L156.78411,718.321443 L157.726098,716.727985 L157.320424,715.966235 L154.226303,722.044692 L153.49059,725.620254 L153.421832,727.369171 L153.889388,729.040358 L155.436448,731.395565 L159.472557,734.364837 L161.088376,736.26144 L161.49405,735.880564 L162.834835,735.655149 L164.450654,735.732878 L165.530159,736.113753 L166.066473,736.797774 L167.145977,738.70215 L167.75105,739.152982 L168.961195,739.992462 L169.428751,740.598753 L169.566267,743.79344 L169.359993,747.369003 L168.486763,751.247711 L167.345376,755.118646 L164.051856,760.97946 L163.378025,763.256938 L163.577424,764.174147 L165.392642,766.840273 L165.867074,767.67198 L166.135231,768.58919 L166.33463,769.498627 L166.33463,770.633479 L165.798316,772.99646 L164.051856,776.727482 L163.378025,778.92723 L164.051856,780.598417 L164.519412,782.572749 L164.787569,784.632584 L164.120615,787.213208 L163.171751,788.884395 L162.298521,790.182479 L161.555932,791.62825 L160.283904,794.667479 L159.341917,796.183206 L159.610074,797.473518 L160.352663,798.623916 L162.16788,799.688812 L164.251255,800.909167 L165.935832,801.212313 L168.287364,804.243768 L169.834425,808.130249 L170.907053,812.38206 L174.069933,813.14381 L181.268921,812.918394 L192.366501,814.434122 L195.866296,815.506791 L198.761018,817.558853 L202.728369,817.108021 L206.764478,819.688644 L213.626551,825.549458 L215.036095,825.549458 L216.78943,825.08308 L218.467131,824.935394 L219.608518,825.774874 L220.419865,826.83977 L221.898168,828.355497 L223.582745,829.645809 L224.861648,830.104414 L225.865518,829.568079 L226.608107,828.736373 L227.481337,828.130081 L231.318047,827.896893 L232.796349,828.814102 L234.611567,829.039518 L235.484797,829.342664 L236.227386,829.948955 L237.63693,831.93106 L241.941196,835.281207 L244.499003,836.719205 L251.966148,847.43812 L252.908136,848.19987 L254.661471,848.510789 L255.465943,848.813934 L256.139773,849.497955 L256.270414,850.407392 L256.139773,851.48006 L256.208532,852.467227 L257.081761,853.298933 L256.538571,854.363829 L256.538571,855.801827 L257.013003,857.333101 L257.549317,858.771099 L257.748716,859.462893 L257.817475,860.753204 L257.954991,861.281766 L258.291906,861.662641 L258.965737,861.965786 L259.364535,862.346662 L262.121741,866.380829 L263.875076,867.982059 L266.226608,868.58835 L265.215862,868.129746 L264.610789,867.74887 L264.074475,867.74887 L263.875076,866.753931 L266.226608,867.8266 L271.741019,873.290993 L278.809367,877.177474 L282.432926,878.320099 L285.128249,880.294432 L286.200878,881.957846 L287.747938,881.351555 L289.301875,880.900723 L300.330697,881.584743 L301.341443,881.887889 L302.015274,882.424223 L302.620347,882.579683 L303.493577,882.346494 L304.703722,881.810159 L306.450181,882.649639 L308.471673,884.787204 L310.417532,887.515514 L312.507782,893.065409 L313.518529,898.094515 L314.522399,902.113137 L314.728674,904.017513 L314.591157,905.541013 L314.054843,908.81343 L313.250371,910.103742 L311.964592,911.246368 L311.366396,912.839825 L312.507782,915.350492 L312.975338,915.809097 L313.717927,916.267701 L314.522399,916.485344 L315.333746,916.189972 L316.138218,916.112242 L316.74329,917.177138 L317.348363,918.46745 L318.022194,919.159243 L318.696024,919.540118 L319.500496,920.14641 L320.311843,920.597241 L321.185073,920.519512 L321.652629,919.913221 L321.852028,919.159243 L321.920786,918.164304 L322.862774,915.280535 L323.405964,914.736428 L324.409835,914.736428 L325.014907,914.588741 L325.688738,914.285596 L326.431327,914.207866 L328.047146,916.112242 L329.257291,916.337658 L330.804351,916.407615 L332.75021,916.943949 L334.029113,917.931115 L342.575763,931.238427 L344.796654,934.060012 L352.93763,940.900219 L356.031751,944.7867 L358.452041,949.87799 L359.861586,951.090573 L362.81819,953.982115 L363.897694,955.272426 L367.52813,961.280926 L373.654489,968.051176 L382.125505,986.760697 L384.820828,997.021007 L385.556542,1002.49317 L385.487783,1004.40532 L385.962215,1005.75782 L386.49853,1016.34459 L386.230372,1017.93805 L385.219626,1019.83465 L384.215756,1020.75186 L383.473167,1021.73903 L383.273768,1023.93878 L384.683312,1027.51434 L384.75207,1029.03784 L384.346396,1031.0899 L383.136251,1035.4894 L383.20501,1036.56207 L383.672566,1038.46644 L383.810082,1039.82671 L384.284514,1039.00278 L385.157744,1035.87805 L386.024098,1034.89088 L387.103602,1034.51778 L387.639916,1034.58773 L388.91882,1035.12407 L390.067082,1036.18119 L391.682901,1037.32382 L392.349856,1038.31876 L393.360602,1040.5185 L394.103191,1043.02917 L394.103191,1044.92577 L393.429361,1045.68752 L392.487373,1045.22892 L392.081699,1043.78315 L391.277228,1041.66113 L390.734037,1039.60129 L389.929566,1038.54417 L389.998324,1037.16836 L388.650663,1036.25892 L387.578034,1036.0335 L386.704804,1037.02067 L385.962215,1037.93788 L388.114348,1038.31876 L389.592651,1039.98994 L390.534638,1042.50061 L391.407868,1045.76525 L391.33911,1048.35365 L390.734037,1050.70886 L390.802796,1053.67036 L391.277228,1054.51761 L396.922279,1054.89848 L402.505449,1055.27159 L408.157377,1055.73019 L413.809304,1056.11107 L419.392474,1056.49194 L425.044401,1056.87282 L430.696329,1057.24592 L436.341381,1057.70452 L441.924551,1058.0854 L447.576478,1058.46627 L453.228406,1058.77719 L458.811575,1059.15029 L464.463503,1059.53117 L470.108555,1059.91205 L475.760483,1060.21519 L486.99558,1060.96917 L492.647508,1061.28009 L498.230677,1061.58323 L503.882605,1061.96411 L509.527657,1062.26725 L515.110826,1062.5704 L520.762754,1062.95905 L526.414682,1063.26219 L531.997851,1063.56534 L537.649779,1063.86848 L543.294831,1064.17163 L548.878,1064.47477 L554.529928,1064.77792 L560.181856,1065.00334 L565.765025,1065.29871 L571.416953,1065.6174 L574.511074,1065.76509 L574.511074,1065.92055 L574.97863,1064.63023 L578.141509,1062.71808 L585.814929,1065.68736 L589.108449,1065.38421 L589.981679,1063.94621 L590.318594,1062.11179 L590.449235,1060.29292 L590.923667,1058.544 L592.065054,1057.32365 L595.159175,1055.58251 L596.169921,1054.36215 L596.637477,1052.23236 L596.169921,1045.53984 L596.438078,1044.24175 L596.706235,1043.33232 L596.843752,1042.34515 L596.706235,1040.97711 L595.028534,1037.24609 L592.601368,1035.19403 L585.814929,1033.60057 L582.98209,1031.85165 L581.166872,1027.89521 L581.840703,1024.39738 L583.387763,1020.75186 L584.329751,1016.41455 L584.260993,1010.48378 L583.930953,1009.03801 L581.909461,1005.6179 L581.909461,1004.0944 L582.98209,1001.35055 L583.992836,1000.44888 L584.398509,999.609403 L584.061594,998.466778 L583.587162,997.557341 L582.920207,996.11157 L582.713932,994.891215 L583.52528,994.432611 L587.224473,994.735756 L589.170332,994.362654 L590.65551,993.445444 L594.086546,987.895549 L595.097292,985.540342 L595.970522,984.615359 L597.648223,983.107404 L598.865244,981.80932 L599.195284,981.125299 L599.600957,979.834987 L599.463441,977.549736 L599.669716,976.189468 L600.336671,975.730863 L600.673586,975.272258 L600.879861,974.137406 L601.07926,971.929885 L601.684332,969.489174 L602.695078,968.198863 L603.705825,967.133967 L604.372779,965.773698 L603.767707,963.791593 L603.568308,962.648968 L604.04274,962.198136 L604.372779,961.661801 L604.579054,960.519176 L604.647812,959.306594 L604.441538,958.700303 L603.637066,957.479948 L603.705825,954.969281 L603.973982,952.380884 L603.973982,950.865157 L605.521042,949.800261 L606.187997,948.968554 L606.187997,948.043571 L604.984728,945.843823 L604.510296,944.631241 L604.372779,943.410886 L605.115369,941.211137 L606.46303,939.983009 L609.687792,938.241866 L611.035453,937.021511 L612.451873,935.57574 L613.524502,933.756867 L614.604006,929.497283 L615.607877,927.748367 L616.955538,926.450282 L619.781502,925.921721 L628.121877,920.892614 L629.600179,920.674971 L632.357385,917.558013 L635.183349,915.125076 L637.741156,913.446116 L638.545627,912.155804 L638.346228,909.948283 L638.346228,909.948283 Z M45.3888776,446.011253 L44.9832039,446.462085 L45.0519622,446.765231 L44.9832039,446.92069 L45.0519622,446.765231 L45.1138446,446.84296 L44.9832039,446.998419 L45.4576358,446.08121 L45.3888776,446.158939 L45.3888776,446.011253 L45.3888776,446.011253 Z M88.5690552,438.556982 L88.4384146,438.782398 L88.1014992,438.704669 L87.833342,439.085544 L87.7645838,439.917251 L87.7645838,439.99498 L88.1702574,440.375856 L88.77533,440.298126 L89.3804025,439.163273 L89.3116443,439.163273 L89.3804025,439.163273 L88.5690552,438.556982 L88.5690552,438.556982 Z M91.8006927,443.422857 L91.8006927,444.713168 L91.869451,444.783125 L92.4745235,446.08121 L92.61204,445.778064 L92.61204,445.708108 L92.2063664,445.404962 L92.61204,443.726002 L91.8006927,443.422857 L91.8006927,443.422857 Z M242.951942,873.368722 L241.941196,872.91789 L241.336123,872.381556 L240.531652,871.922951 L239.789063,871.775265 L239.589664,872.07841 L239.72718,872.381556 L240.868567,873.368722 L241.542398,873.368722 L242.546268,873.679641 L243.625773,873.601911 L243.557015,873.290993 L242.951942,873.368722 L242.951942,873.368722 Z M261.9911,931.090741 L261.44791,931.316156 L260.643438,931.393886 L260.375281,931.541572 L260.512798,932.00795 L260.643438,932.917387 L260.842837,933.445948 L260.842837,933.515905 L261.853584,932.00795 L261.9911,931.16847 L261.922342,931.16847 L261.9911,931.090741 L261.9911,931.090741 Z" id="Stroke-93" stroke="#F9F9F9" stroke-width="0.605326877" stroke-linecap="round" stroke-linejoin="round"></path>
                </g>
                <g id="Shasta">
                    <circle id="Oval" fill-opacity="0.3" fill="#0A93FA" cx="250" cy="250" r="250"></circle>
                    <g id="Amount" transform="translate(111.000000, 110.000000)">
                        <circle id="Oval-Copy" fill="#0A93FA" cx="140" cy="140" r="140"></circle>
                        <text id="56%" font-family="SFUIText-Bold, SF UI Text" font-size="79.0588235" font-weight="bold" fill="#DBDBDB">
                            <tspan x="55.5431985" y="167.235294">56%</tspan>
                        </text>
                    </g>
                    <text id="SHASTA" font-family="SFUIText-Regular, SF UI Text" font-size="24" font-weight="normal" fill="#333333">
                        <tspan x="397.023438" y="256">SHASTA</tspan>
                    </text>
                </g>
                <g id="Oroville" transform="translate(115.000000, 390.000000)">
                    <circle id="Oval" fill-opacity="0.3" fill="#0A93FA" cx="192.5" cy="192.5" r="192.5"></circle>
                    <g id="Amount" transform="translate(102.000000, 101.000000)">
                        <circle id="Oval-Copy" fill="#0A93FA" cx="92.5" cy="92.5" r="92.5"></circle>
                        <text id="48%" font-family="SFUIText-Bold, SF UI Text" font-size="52.1434153" font-weight="bold" fill="#DBDBDB">
                            <tspan x="35.8943978" y="110.941176">48%</tspan>
                        </text>
                    </g>
                    <text font-family="SFUIText-Regular, SF UI Text" font-size="24" font-weight="normal" fill="#333333">
                        <tspan x="291.316406" y="199">Oroville</tspan>
                    </text>
                </g>
                <g id="San-Luis" transform="translate(138.000000, 665.000000)">
                    <circle id="Oval" fill-opacity="0.3" fill="#0A93FA" cx="110" cy="110" r="110"></circle>
                    <g id="Amount" transform="translate(43.000000, 43.000000)">
                        <circle id="Oval-Copy" fill="#0A93FA" cx="67.314554" cy="67.314554" r="66.685446"></circle>
                        <text id="61%" font-family="SFUIText-Bold, SF UI Text" font-size="37.737125" font-weight="bold" fill="#DBDBDB">
                            <tspan x="29.5259599" y="80.1411765">61%</tspan>
                        </text>
                    </g>
                    <text id="SAN-LUIS" font-family="SFUIText-Regular, SF UI Text" font-size="24" font-weight="normal" fill="#333333">
                        <tspan x="180.373047" y="117">SAN LUIS</tspan>
                    </text>
                </g>
                <g id="Castaic" transform="translate(362.000000, 999.000000)">
                    <circle id="Oval" fill-opacity="0.3" fill="#0A93FA" cx="18" cy="18" r="18"></circle>
                    <g id="Amount" transform="translate(12.000000, 12.000000)">
                        <circle id="Oval-Copy" fill="#0A93FA" cx="6" cy="6" r="6"></circle>
                        <text id="33%" font-family="SFUIText-Bold, SF UI Text" font-size="3.23239802" font-weight="bold" fill="#DBDBDB">
                            <tspan x="2.56593013" y="6.95294118">33%</tspan>
                        </text>
                    </g>
                    <text id="CASTAIC" font-family="SFUIText-Regular, SF UI Text" font-size="24" font-weight="normal" fill="#333333">
                        <tspan x="44.1855469" y="26">CASTAIC</tspan>
                    </text>
                </g>
                <text font-family="SFUIText-Regular, SF UI Text" font-size="72" font-weight="normal" fill="#333333">
                    <tspan x="296.021484" y="1478">2015</tspan>
                </text>
            </g>
        </g>
    </g>
</svg>